Coordinates
version=1
nRows=12
nColumns=46
inDegrees=yes

Units are S.I. units (second, meters, Newtons, ...)
Angles are in degrees.

endheader
time	pelvis_tilt	pelvis_list	pelvis_rotation	pelvis_tx	pelvis_ty	pelvis_tz	bb_angle	bb_tx	bb_ty	bb_tz	hip_flexion_r	hip_adduction_r	hip_rotation_r	knee_angle_r	knee_angle_r_beta	ankle_angle_r	subtalar_angle_r	mtp_angle_r	crank_angle_r	hip_flexion_l	hip_adduction_l	hip_rotation_l	knee_angle_l	knee_angle_l_beta	ankle_angle_l	subtalar_angle_l	mtp_angle_l	crank_angle_l	lumbar_extension	lumbar_bending	lumbar_rotation	arm_flex_r	arm_add_r	arm_rot_r	elbow_flex_r	pro_sup_r	wrist_flex_r	wrist_dev_r	arm_flex_l	arm_add_l	arm_rot_l	elbow_flex_l	pro_sup_l	wrist_flex_l	wrist_dev_l
      0.00000000	    -17.74649898	     -7.27719345	     -3.44423670	      0.15708039	      1.12123036	     -0.23653834	      0.00000000	      0.50000000	      0.00000000	      0.25000000	     79.29766965	      1.34434168	     -0.83381082	    107.41454011	      1.87473739	     27.87444410	     -3.91839392	      0.00000000	      0.00000000	     34.86657184	    -12.68793940	     -5.51394152	     16.66190438	      0.29080509	     -9.07687039	      7.61906800	      0.00000000	      0.00000000	    -51.31661783	      3.16321518	      5.82255547	     87.32075311	     -4.03242490	     36.25541252	     33.85040834	     31.17636526	      0.00000000	      0.00000000	     87.24351440	    -11.79176326	     37.45430038	     34.53615667	     31.96990907	      0.00000000	      0.00000000
      0.00500000	    -17.72940173	     -7.29320506	     -3.46418440	      0.15708623	      1.12127301	     -0.23651421	      0.00000000	      0.50000000	      0.00000000	      0.25000000	     79.27639852	      1.36670308	     -0.85730484	    107.40496215	      1.87457022	     27.83866320	     -3.97848971	      0.00000000	      0.00000000	     34.85305086	    -12.72010126	     -5.54425283	     16.68050178	      0.29112968	     -9.06638460	      7.63910256	      0.00000000	      0.00000000	    -51.34594282	      3.15556570	      5.87050609	     87.35742683	     -4.32061893	     36.81511023	     33.91778911	     31.88662777	      0.00000000	      0.00000000	     87.32668301	    -12.05951630	     38.36651418	     34.56755282	     32.64894753	      0.00000000	      0.00000000
      0.01000000	    -17.72305807	     -7.32294604	     -3.49296247	      0.15711599	      1.12130076	     -0.23648577	      0.00000000	      0.50000000	      0.00000000	      0.25000000	     79.26252748	      1.41107899	     -0.88058358	    107.39558291	      1.87440652	     27.84771331	     -4.01761978	      0.00000000	      0.00000000	     34.84073484	    -12.76867547	     -5.57457572	     16.68958598	      0.29128823	     -9.01540776	      7.69434163	      0.00000000	      0.00000000	    -51.34458904	      3.15558428	      5.87488361	     87.33004884	     -3.97093674	     35.89963785	     33.47514283	     32.84761899	      0.00000000	      0.00000000	     87.27505154	    -11.73986524	     37.28299320	     34.15417804	     33.57558949	      0.00000000	      0.00000000
      0.01500000	    -17.85149331	     -7.58877803	     -3.56736833	      0.15665934	      1.12117270	     -0.23599280	      0.00000000	      0.50000000	      0.00000000	      0.25000000	     79.28503252	      1.64629261	     -1.08570528	    107.34199281	      1.87347120	     27.99966706	     -3.72912774	      0.00000000	      0.00000000	     35.34276599	    -13.24599765	     -5.31091562	     17.41415631	      0.30393436	     -8.34736624	      7.23911124	      0.00000000	      0.00000000	    -51.32425151	      3.31863121	      6.11768270	     87.49410880	     -4.32170317	     36.67542011	     33.43973729	     34.78715683	      0.00000000	      0.00000000	     87.38691628	    -13.17310157	     40.24320865	     35.29919267	     35.87554868	      0.00000000	      0.00000000
      0.02000000	    -17.98954219	     -7.72816866	     -3.53111386	      0.15622137	      1.12132631	     -0.23584157	      0.00000000	      0.50000000	      0.00000000	      0.25000000	     79.40819766	      1.85444945	     -1.19981018	    107.30097479	      1.87275530	     28.03827596	     -3.61290351	      0.00000000	      0.00000000	     35.28305573	    -13.23906787	     -4.16448723	     17.03000739	      0.29722970	     -8.57275504	      6.11163879	      0.00000000	      0.00000000	    -51.24125535	      3.40660479	      6.18030417	     87.39653835	     -4.20477673	     36.03989361	     33.45079498	     35.66152162	      0.00000000	      0.00000000	     87.30754484	    -13.61595114	     40.67921164	     35.86067802	     36.90707626	      0.00000000	      0.00000000
      0.02500000	    -18.09499482	     -8.02365625	     -3.51475826	      0.15588894	      1.12092067	     -0.23506164	      0.00000000	      0.50000000	      0.00000000	      0.25000000	     79.49122651	      2.06922029	     -1.52533547	    107.25434853	      1.87194152	     28.06909853	     -3.79987298	      0.00000000	      0.00000000	     34.97304500	    -13.07314394	     -2.32185400	     15.95643907	      0.27849240	     -9.52298740	      4.18754535	      0.00000000	      0.00000000	    -51.06853644	      3.43620133	      6.63339607	     87.46963464	     -5.16219899	     37.26041201	     33.52091169	     36.23906178	      0.00000000	      0.00000000	     87.65629405	    -11.79468631	     39.17030481	     33.82218681	     36.78725706	      0.00000000	      0.00000000
      0.03000000	    -18.02371344	     -7.98268126	     -3.39951241	      0.15590766	      1.12100555	     -0.23550187	      0.00000000	      0.50000000	      0.00000000	      0.25000000	     79.40416754	      1.86631402	     -1.48645047	    107.22291094	      1.87139283	     28.04093813	     -3.67177550	      0.00000000	      0.00000000	     34.85930061	    -12.91009811	     -2.13716927	     15.82237879	      0.27615261	     -9.77132226	      4.24714780	      0.00000000	      0.00000000	    -51.11376630	      3.45233439	      6.56022044	     87.43290501	     -5.20285765	     37.00674915	     33.43858588	     36.48553783	      0.00000000	      0.00000000	     87.63470539	    -11.64070401	     38.77762739	     33.76279303	     36.99288172	      0.00000000	      0.00000000
      0.03500000	    -18.07913699	     -8.03684792	     -3.43610401	      0.15582854	      1.12090955	     -0.23526021	      0.00000000	      0.50000000	      0.00000000	      0.25000000	     79.47730803	      1.95212785	     -1.53709299	    107.21465536	      1.87124874	     28.00275648	     -3.75556529	      0.00000000	      0.00000000	     35.03067202	    -13.09537016	     -2.73706971	     15.99799411	      0.27921767	     -9.68417246	      5.23251734	      0.00000000	      0.00000000	    -51.07951564	      3.45543419	      6.59932372	     87.46428974	     -5.29569909	     37.19450714	     33.43214384	     37.00066331	      0.00000000	      0.00000000	     87.56572241	    -12.21881614	     39.50962604	     34.35622318	     37.63197991	      0.00000000	      0.00000000
      0.04000000	    -17.78775132	     -7.95303590	     -3.23092786	      0.15640073	      1.12139863	     -0.23617112	      0.00000000	      0.50000000	      0.00000000	      0.25000000	     78.93199715	      1.18352884	     -1.45290738	    107.11302735	      1.86947500	     28.46226401	     -2.61073233	      0.00000000	      0.00000000	     34.61006443	    -12.84095823	     -2.67342375	     15.79524498	      0.27567903	     -9.74478489	      5.30189981	      0.00000000	      0.00000000	    -51.45089487	      3.62350607	      6.43073311	     87.26387061	     -5.30993187	     36.30765766	     34.25370613	     37.42876405	      0.00000000	      0.00000000	     87.31133164	    -12.15277973	     38.38647163	     34.96856838	     37.96824563	      0.00000000	      0.00000000
      0.04500000	    -17.86051680	     -7.86803012	     -3.24894636	      0.15618712	      1.12113286	     -0.23606487	      0.00000000	      0.50000000	      0.00000000	      0.25000000	     79.07796845	      1.16725489	     -1.35597761	    107.16224857	      1.87033407	     28.42599129	     -2.63420305	      0.00000000	      0.00000000	     34.73894132	    -12.84456831	     -3.21447813	     15.87729095	      0.27711100	     -9.67455986	      5.66509334	      0.00000000	      0.00000000	    -51.28134276	      3.53962252	      6.38119020	     87.48803117	     -5.29108088	     37.16926002	     33.31861155	     37.84864405	      0.00000000	      0.00000000	     87.57854818	    -11.54729398	     38.23381707	     33.55247106	     38.19523064	      0.00000000	      0.00000000
      0.05000000	    -17.75404006	     -7.82899143	     -3.28214435	      0.15646543	      1.12146505	     -0.23614849	      0.00000000	      0.50000000	      0.00000000	      0.25000000	     78.94113463	      1.18745000	     -1.31101302	    107.14431524	      1.87002108	     28.43162100	     -2.72082815	      0.00000000	      0.00000000	     34.43645892	    -12.67382146	     -2.32079419	     15.64781784	      0.27310594	     -9.83469084	      4.62850627	      0.00000000	      0.00000000	    -51.39121297	      3.50679511	      6.33844133	     87.47493317	     -4.92760752	     36.38826928	     32.97838046	     38.27485456	      0.00000000	      0.00000000	     87.48081819	    -11.34388422	     37.31654905	     33.36502038	     38.61123602	      0.00000000	      0.00000000
      0.05500000	    -17.69452511	     -7.74940135	     -3.27989144	      0.15651008	      1.12161820	     -0.23626436	      0.00000000	      0.50000000	      0.00000000	      0.25000000	     78.88810347	      1.15219088	     -1.22161312	    107.15319884	      1.87017612	     28.45589884	     -2.67637629	      0.00000000	      0.00000000	     34.32830869	    -12.58603311	     -2.37084967	     15.59576023	      0.27219737	     -9.88418464	      4.58706527	      0.00000000	      0.00000000	    -51.46747171	      3.44994006	      6.28661120	     87.48626827	     -4.99447668	     36.41226349	     32.99502581	     38.62224973	      0.00000000	      0.00000000	     87.47395426	    -11.38194845	     37.26035026	     33.41677686	     38.93532518	      0.00000000	      0.00000000
